<?xml version="1.0" encoding="utf-8"?>
<!-- Generator: Adobe Illustrator 25.2.1, SVG Export Plug-In . SVG Version: 6.00 Build 0)  -->
<svg version="1.1" id="Layer_1" xmlns="http://www.w3.org/2000/svg" xmlns:xlink="http://www.w3.org/1999/xlink" x="0px" y="0px"
	 viewBox="0 0 300 214.9" style="enable-background:new 0 0 300 214.9;" xml:space="preserve">
<style type="text/css">
	.st0{display:none;}
	.st1{display:inline;opacity:0.15;}
	.st2{display:inline;fill:#FFFFFF;}
	.st3{display:inline;fill:#618B6E;}
	.st4{display:inline;fill:#405960;}
	.st5{display:inline;fill:#F3C149;}
	.st6{display:inline;fill:#EB4E4E;}
	.st7{display:inline;fill:#476E74;}
	.st8{display:inline;fill:#3E5A62;}
	.st9{display:inline;fill:#E5AF68;}
	.st10{display:inline;fill:#FCBC83;}
	.st11{opacity:0.8;}
	.st12{fill:#486D72;}
	.st13{fill:#F0CA8B;}
	.st14{fill:#F2C98A;}
	.st15{fill:#C59B69;}
	.st16{fill:#648E6D;}
	.st17{fill:#3F5D5B;}
	.st18{fill:#648A6D;}
	.st19{fill:#E5AF68;}
	.st20{fill:none;stroke:#000000;stroke-miterlimit:10;}
	.st21{fill:#CCCCCB;}
	.st22{fill:#E5E7E5;}
	.st23{fill:none;stroke:#B79062;stroke-miterlimit:10;}
	.st24{fill:#D19F58;}
	.st25{fill:none;stroke:#D4AB6A;stroke-miterlimit:10;}
	.st26{fill:#39595B;}
	.st27{fill:none;stroke:#39595B;stroke-miterlimit:10;}
	.st28{fill:none;stroke:#D5AC6B;stroke-miterlimit:10;}
	.st29{fill:#F4C8C5;}
	.st30{fill:none;stroke:#3F5D5B;stroke-miterlimit:10;}
</style>
<g id="Sketch" class="st0">
	<g class="st1">
		
			<image style="overflow:visible;enable-background:new    ;" width="608" height="464" xlink:href="94CAAEBD.jpg"  transform="matrix(0.7575 0 0 -0.7569 -84.6974 241.6314)">
		</image>
	</g>
</g>
<g id="Colors" class="st0">
	<rect x="-45.6" y="-58.4" class="st2" width="40.6" height="300"/>
	<path class="st3" d="M-23.3-12.7h-4c-6.6,0-12-5.4-12-12v-4c0-6.6,5.4-12,12-12h4c6.6,0,12,5.4,12,12v4
		C-11.3-18.1-16.7-12.7-23.3-12.7z"/>
	<path class="st4" d="M-23.3,21.1h-4c-6.6,0-12-5.4-12-12v-4c0-6.6,5.4-12,12-12h4c6.6,0,12,5.4,12,12v4
		C-11.3,15.7-16.7,21.1-23.3,21.1z"/>
	<path class="st5" d="M-23.3,54.9h-4c-6.6,0-12-5.4-12-12v-4c0-6.6,5.4-12,12-12h4c6.6,0,12,5.4,12,12v4
		C-11.3,49.5-16.7,54.9-23.3,54.9z"/>
	<path class="st6" d="M-23.3,88.7h-4c-6.6,0-12-5.4-12-12v-4c0-6.6,5.4-12,12-12h4c6.6,0,12,5.4,12,12v4
		C-11.3,83.3-16.7,88.7-23.3,88.7z"/>
	<path class="st7" d="M-23.3,122.4h-4c-6.6,0-12-5.4-12-12v-4c0-6.6,5.4-12,12-12h4c6.6,0,12,5.4,12,12v4
		C-11.3,117-16.7,122.4-23.3,122.4z"/>
	<path class="st8" d="M-23.3,156.2h-4c-6.6,0-12-5.4-12-12v-4c0-6.6,5.4-12,12-12h4c6.6,0,12,5.4,12,12v4
		C-11.3,150.8-16.7,156.2-23.3,156.2z"/>
	<path class="st9" d="M-23.3,190h-4c-6.6,0-12-5.4-12-12v-4c0-6.6,5.4-12,12-12h4c6.6,0,12,5.4,12,12v4
		C-11.3,184.6-16.7,190-23.3,190z"/>
	<path class="st10" d="M-23.3,223.8h-4c-6.6,0-12-5.4-12-12v-4c0-6.6,5.4-12,12-12h4c6.6,0,12,5.4,12,12v4
		C-11.3,218.4-16.7,223.8-23.3,223.8z"/>
	
		<image style="display:inline;overflow:visible;enable-background:new    ;" width="748" height="744" xlink:href="94CAAEBF.jpg"  transform="matrix(0.2256 0 0 0.2256 -240.4558 -57.0436)">
	</image>
</g>
<g id="Content_1_" class="st11">
	<polygon class="st12" points="205.3,109.1 209.4,122.3 189.1,124.2 187.3,110 	"/>
	<rect y="179.2" class="st13" width="300" height="35.6"/>
	<path class="st14" d="M170.4,89.8L174,99l-0.1,0.9c-0.5,4.3,1.7,8.5,5.5,10.6l0,0c1.3,0.7,2.7,1,4.1,1h21.3c5,0,9.1-4.1,9.1-9.1
		V90.9v-8.7l-12.2-20.5h-7.5c-13.6,0-24.6,11-24.6,24.6l0,0C169.8,87.5,170,88.7,170.4,89.8z"/>
	<path class="st15" d="M179,87.5l2.1,7c0.3,0.9,0.7,1.7,1.3,2.3l0.1,0.2c0.6,0.6,0.3-2.2-0.2-3.1L179,87.5z"/>
	<path class="st16" d="M50.4,140c4.4-3.5,9.8-5.9,14-9.6c-2.1,3-4.2,6-5.6,9.2c-3,7-2.8,15.3-7.7,21.4c-2.7,3.3-6.6,5.7-8.9,9.2
		c-0.4,0.7-0.8,1.4-1,2.2c-0.1,0.4-0.1,0.8-0.1,1.2c0,0.3,0,0.5-0.4,0.2c-0.4-0.4-0.5-1.4-0.7-1.9c-0.2-0.6-0.4-1.3-0.5-1.9
		c-0.6-2.6-0.8-5.3-0.7-8c0.2-2.7,0.7-5.3,1.6-7.9c0.9-2.6,2.1-5,3.6-7.3s3.4-4.4,5.6-6.2C49.8,140.5,50.1,140.3,50.4,140z"/>
	<path class="st17" d="M39.7,165.1c-0.1-0.3-0.1-0.6-0.2-0.9c-0.7-3-1.8-5.9-3.2-8.6c-0.8-1.6-1.7-3.1-2.7-4.5
		c-4.7-6.8-11.7-12.1-19.8-14.5c6.1,6.2,9.2,14.5,14.8,21.1c1.7,2,3.5,3.8,5.4,5.6c1.8,1.8,3.6,3.7,5,5.9c0.8,1.2,1.4,2.4,1.9,3.7
		c-0.3-1.3-0.3-2.8-0.4-4.1c-0.1-1-0.5-2.1-0.4-3.2c0-0.4,0.1-0.8,0.2-1.2c0.2-1.3,0-2.7,0.1-4c0.2-2.8,0.8-5.6,1.7-8.3
		c1.2-3.5,2.7-6.9,4.5-10.2c3.8-7.2,8.4-14,10.8-21.8c-8.3,3.1-13.7,11.1-15.7,19.5c-2,8.3-1.1,17-0.2,25.5"/>
	<path class="st18" d="M38.8,141.8c-3.1-11.8-9.1-22.2-16.9-29.5c-2,15.6,2.8,31.4,9.7,44.4c1.5,2.9,3.2,5.7,4.7,8.7
		c0.7,1.5,1.4,3,2,4.5c0.3,0.8,0.6,1.6,0.8,2.3c0.2,0.6,0.3,1.8,0.7,2.3c0.6,0.7,0.6-0.8,0.6-1.3c0.1-0.9,0.3-1.8,0.4-2.7
		c0.2-1.8,0.4-3.7,0.4-5.6c0.2-3.7,0.1-7.4-0.3-11.1C40.5,149.8,39.8,145.7,38.8,141.8z"/>
	<path class="st15" d="M197.6,87.5l2.1,7c0.3,0.9,0.7,1.7,1.3,2.3l0.1,0.2c0.6,0.6,0.3-2.2-0.2-3.1L197.6,87.5z"/>
	<path class="st19" d="M223.8,66.7v14.9c-1.4,1.5-3,3.1-4.9,4.7c-1.5,1.3-3.3,2.5-5.2,3.4l0.3-7.5l-1.7-1l-6.9-4.1
		c-2.1-1.2-4-2.7-5.8-4.4l-7.3-7l-0.5-0.2l-1.7,0.1l-4.3,1.2c-2,0.5-3.9,1.4-5.7,2.6c-1.4,1-2.9,2.1-3.2,2.3
		c-0.3,0.2-1.1,1.5-1.9,2.7c-1,1.6-1.7,3.4-1.9,5.3l-0.2,1.8l-0.4,2.9l-0.5,4.1c-1-0.7-1.8-1.4-2.4-2.2c-1.8-2.2-3.1-4.1-4.1-5.8
		l0,0c-0.1-0.1-0.1-0.2-0.2-0.3c-0.2-0.3-0.3-0.6-0.5-0.8c-0.2-0.3-0.3-0.5-0.4-0.8l8.5-17c2.3-4.7,7.2-7.7,12.4-7.7h25.9
		c1.8,0,10.7-3.7,4.7,2l6.1,6.4C223.1,63.5,223.8,65,223.8,66.7z"/>
	<path class="st19" d="M172.1,88.5l-0.5,4.3c-3.7,0.6-7.1-2.1-7.4-5.8l-0.4-4.7c-0.1-1.2,0.1-2.4,0.6-3.5l0.1-0.2
		c1.1,2,2.8,4.6,5.3,7.7C170.4,87.1,171.2,87.8,172.1,88.5z"/>
	<path class="st19" d="M223.8,81.6V92c0,1.6-0.6,3.1-1.6,4.3l-9.2,10.3l0.7-16.9c1.9-1,3.6-2.1,5.2-3.4
		C220.7,84.7,222.3,83.1,223.8,81.6z"/>
	<path class="st20" d="M187.9,101.9"/>
	<path class="st20" d="M189.1,91.6"/>
	<path class="st20" d="M153.7,163.1"/>
	<path class="st12" d="M241.6,179.3l-18.4,0.4l-37.4,0.8l-25.2-1.1h-12.4c0,0,3.6-27,7.3-31.5s10.4-23.1,10.4-23.1l55-6.2
		c0,0,10.7,10.1,13.9,25.9c1.7,8.3,3.4,17.4,4.8,24.3c0,0.1,0,0.2,0,0.3c0,0.2,0.1,0.4,0.1,0.6l0,0
		C240.8,175.4,241.6,179.3,241.6,179.3z"/>
	<path class="st19" d="M52.1,189.9H30c-1.6,0-2.9-1.3-2.9-2.9v-17.7c0-1.6,1.3-2.9,2.9-2.9h22.1c1.6,0,2.9,1.3,2.9,2.9V187
		C54.9,188.7,53.7,189.9,52.1,189.9z"/>
	<path class="st19" d="M53.8,168.3h-25c-1.9,0-3.5-1.6-3.5-3.5l0,0c0-1.9,1.6-3.5,3.5-3.5h24.9c1.9,0,3.5,1.6,3.5,3.5l0,0
		C57.3,166.7,55.7,168.3,53.8,168.3z"/>
	<path class="st20" d="M160.6,179.2"/>
	<path class="st21" d="M174.8,187.8H66.1c-1,0-1.9,0.8-1.9,1.9v2.4c0,1,0.8,1.9,1.9,1.9h108.8c1,0,1.9-0.8,1.9-1.9v-2.4
		C176.7,188.6,175.8,187.8,174.8,187.8z"/>
	<polygon class="st22" points="146.7,183.1 66.2,183.1 46.3,144 130.8,144 	"/>
	<line class="st23" x1="28.8" y1="168.3" x2="44.1" y2="168.3"/>
	<polygon class="st14" points="182.3,163.5 187.9,180.3 160.6,180.4 162.3,170.6 	"/>
	<path class="st20" d="M151.9,171.1"/>
	<path class="st20" d="M169.3,134.2"/>
	<path class="st24" d="M223.8,77.8v3.8c-1.4,1.5-3,3.1-4.9,4.7c-1.5,1.3-3.3,2.5-5.2,3.4l0.3-7.5l-1.7-1
		C216.5,80.2,220.5,79.1,223.8,77.8z"/>
	<path class="st15" d="M223.8,81.6V92c0,1.6-0.6,3.1-1.6,4.3l-9.2,10.3l0.7-16.9c1.9-1,3.6-2.1,5.2-3.4
		C220.7,84.7,222.3,83.1,223.8,81.6z"/>
	<path class="st14" d="M212.9,92.8c0,0,2.3-8.6,5.9-6.5s5.6,5.1,3.4,8s-7.7,8-8.6,5S212.9,92.8,212.9,92.8z"/>
	<path class="st14" d="M168.5,123.9v-8.3l18.4-9c0,0,6-0.7,8.6,3.3s7.5,6.6,7.5,6.6s-0.8,1.4-1.4,2c-0.7,0.6-12.4,0-12.4,0
		s4.7-0.4,4.1,3.1s-3.4,7.5-5.8,8.6c-2.4,1.1-4.5,5.1-4.5,5.1l-13.1-1L168.5,123.9z"/>
	<path class="st25" d="M175.7,112.4l8.1-4.4c2.9-1.8,6.5-1.6,9.1,0.6c3.2,2.7,7.2,6.3,10.1,7.9"/>
	<polyline class="st25" points="166.9,177.3 169.3,179.2 187.9,180.3 	"/>
	<path class="st21" d="M56.2,163.3c0,0,32.5,13.4,54,5.8c21.6-7.5,22.5-17,22.4-19.1s14.2,33,14.2,33H66.2L56.2,163.3z"/>
	<path class="st25" d="M218.7,90.7l-2.5,3.4c0,0,1.7-0.7,2.5,0s0.8,0.7,0.8,0.7"/>
	<path class="st15" d="M194.5,83.4l-0.2,1.5l1.7,0.2c0,0,7.5-2.7,9.3-1.1s-3.3-4.4-7-2.5"/>
	<path class="st15" d="M183.7,83.6l0.2,1.5l-1.7,0.3c0,0-7.6-2.5-9.3-0.8s3.1-4.5,7-2.7"/>
	<path class="st25" d="M189.5,94.3c0,0-0.1,2.6-0.5,5.3s-0.6,3.8-0.6,3.8"/>
	<path class="st26" d="M241.6,179.3l-18.4,0.4c0,0,18-2.4,16.6-10C240.8,175.4,241.6,179.3,241.6,179.3z"/>
	<path class="st27" d="M184.4,163.1c0,0,29.4-5.1,31.7-8.2c3-4-2.2-14.1-2.2-14.1"/>
	<path class="st27" d="M182.8,135.3c0,0,1.1,21.3-0.6,28.3"/>
	<path class="st24" d="M171.7,81.7c0.7,0,1.2,0.7,1.1,1.4l-0.2,1.5l-0.5,4.1l-0.4,3.3c-0.1,0.6-0.6,1.1-1.2,1.1
		c-3.2-0.1-6-2.5-6.3-5.9l-0.4-4.7c-0.1-0.8,0-1.5,0.2-2.3c0,0.1,0-0.5,0.8-2l0.7,1.9c0.1,0.4,0.5,0.7,0.9,0.8
		C168.2,81.4,170.3,81.6,171.7,81.7z"/>
	<polyline class="st21" points="147.3,185.7 175.8,188.4 148.3,188.3 	"/>
	<path class="st22" d="M150.2,188.2h-86V183h83.6c1.3,0,2.4,1.1,2.4,2.4L150.2,188.2L150.2,188.2z"/>
	<path class="st28" d="M160.8,179.2c0,0,0.3,0.8,2.1,1.3s6.2-1.4,6.2-1.4"/>
	<circle class="st29" cx="141.7" cy="97.8" r="2.3"/>
	<circle class="st29" cx="135.3" cy="91.7" r="3.4"/>
	<path class="st29" d="M120.2,91.3H95.7c-6.6,0-12-5.4-12-12V70c0-6.6,5.4-12,12-12h24.5c6.6,0,12,5.4,12,12v9.2
		C132.2,85.9,126.8,91.3,120.2,91.3z"/>
	<circle class="st29" cx="181.2" cy="42.4" r="2.3"/>
	<circle class="st29" cx="174.8" cy="36.4" r="3.4"/>
	<path class="st29" d="M159.7,35.9h-24.5c-6.6,0-12-5.4-12-12v-9.2c0-6.6,5.4-12,12-12h24.5c6.6,0,12,5.4,12,12v9.2
		C171.7,30.5,166.3,35.9,159.7,35.9z"/>
	<circle class="st29" cx="229.8" cy="58.2" r="2.3"/>
	<circle class="st29" cx="236.3" cy="52.1" r="3.4"/>
	<path class="st29" d="M252.3,51.6h22.6c7.1,0,13-5.8,13-13v-7.3c0-7.1-5.8-13-13-13h-22.6c-7.1,0-13,5.8-13,13v7.3
		C239.3,45.8,245.2,51.6,252.3,51.6z"/>
	<path class="st30" d="M111,81.3H99.5c-2.1,0-3.8-1.7-3.8-3.8v-5.7c0-2.1,1.7-3.8,3.8-3.8H111c2.1,0,3.8,1.7,3.8,3.8v5.7
		C114.8,79.6,113.1,81.3,111,81.3z"/>
	<polygon class="st30" points="120.2,69.4 120.2,79.9 114.9,76.8 114.9,72.5 	"/>
	<path class="st30" d="M274.3,27.8l1.1,1c0.4,0.4,0.4,1.1,0.1,1.5l-9.2,10.2c-0.4,0.4-1.1,0.4-1.5,0.1l-1.1-1
		c-0.4-0.4-0.4-1.1-0.1-1.5l9.2-10.2C273.2,27.5,273.9,27.5,274.3,27.8z"/>
	<path class="st20" d="M257.8,38.9"/>
	<path class="st30" d="M261.2,43.2l4-2.1c0.1,0,0.1-0.1,0-0.2l-2.1-1.9c-0.1-0.1-0.2,0-0.2,0L261.2,43.2L261.2,43.2z"/>
	<path class="st30" d="M248.8,29.3c1.2-0.9,2.7-1.3,4.2-1.6c0.5-0.1,1-0.2,1.4-0.1s1,0.3,1.2,0.7c0.4,0.7,0.2,1.6-0.3,2.2
		c-1.1,1.6-3.1,2.3-4.6,3.6c-0.5,0.4-1,0.9-1.2,1.5c-0.2,0.5-0.2,1.1-0.2,1.6s0,1,0.4,1.3c0.2,0.2,0.5,0.2,0.8,0.2
		c0.7,0.1,1.3,0,2,0c0.7-0.1,1.3-0.2,2-0.2s1.4,0.1,1.9,0.5c0.5,0.4,0.9,1.1,0.7,1.7c-0.2,0.9-1.2,1.3-1.6,2
		c-0.2,0.4-0.3,0.8-0.3,1.3c0,0.3,0.1,0.6,0.3,0.8c0.3,0.4,0.9,0.6,1.5,0.5c0.5-0.1,1-0.5,1.3-0.9c0.2-0.2,0.3-0.5,0.6-0.6
		c0.5-0.1,0.9,0.4,1.1,0.9c0.5,0.9,0.3-0.4,0.3-0.6"/>
	<rect x="135.1" y="11.4" class="st30" width="24.6" height="15.1"/>
	<path class="st30" d="M144.7,19L144.7,19l-9.1-7.3c-0.1-0.1,0-0.2,0.1-0.2h23.9c0.1,0,0.2,0.2,0.1,0.2l-9.1,7.3l0,0"/>
	<path class="st30" d="M159.5,26.5h-23.9c-0.1,0-0.2-0.1-0.1-0.2l9.1-7.3l3,2.4l3-2.4l9.1,7.3C159.7,26.4,159.7,26.5,159.5,26.5z"/>
</g>
</svg>
