<?xml version="1.0" encoding="utf-8"?>
<!-- Generator: Adobe Illustrator 25.2.1, SVG Export Plug-In . SVG Version: 6.00 Build 0)  -->
<svg version="1.1" id="Layer_1" xmlns="http://www.w3.org/2000/svg" xmlns:xlink="http://www.w3.org/1999/xlink" x="0px" y="0px"
	 viewBox="0 0 300 214.9" style="enable-background:new 0 0 300 214.9;" xml:space="preserve">
<style type="text/css">
	.st0{display:none;}
	.st1{display:inline;fill:#FFFFFF;}
	.st2{display:inline;fill:#618B6E;}
	.st3{display:inline;fill:#405960;}
	.st4{display:inline;fill:#F3C149;}
	.st5{display:inline;fill:#EB4E4E;}
	.st6{display:inline;fill:#476E74;}
	.st7{display:inline;fill:#3E5A62;}
	.st8{display:inline;fill:#E5AF68;}
	.st9{display:inline;fill:#FCBC83;}
	.st10{opacity:0.8;}
	.st11{fill:#486D72;}
	.st12{fill:#F0CA8B;}
	.st13{fill:#F2C98A;}
	.st14{fill:#C59B69;}
	.st15{fill:#648E6D;}
	.st16{fill:#3F5D5B;}
	.st17{fill:#648A6D;}
	.st18{fill:#E5AF68;}
	.st19{fill:none;stroke:#000000;stroke-miterlimit:10;}
	.st20{fill:#CCCCCB;}
	.st21{fill:#E5E7E5;}
	.st22{fill:none;stroke:#B79062;stroke-miterlimit:10;}
	.st23{fill:#D19F58;}
	.st24{fill:none;stroke:#D4AB6A;stroke-miterlimit:10;}
	.st25{fill:#39595B;}
	.st26{fill:none;stroke:#39595B;stroke-miterlimit:10;}
	.st27{fill:none;stroke:#D5AC6B;stroke-miterlimit:10;}
	.st28{fill:#F4C8C5;}
	.st29{fill:none;stroke:#3F5D5B;stroke-miterlimit:10;}
</style>
<g id="Sketch" class="st0">
</g>
<g id="Colors" class="st0">
	<rect x="-45.6" y="-58.4" class="st1" width="40.6" height="300"/>
	<path class="st2" d="M-23.3-12.7h-4c-6.6,0-12-5.4-12-12v-4c0-6.6,5.4-12,12-12h4c6.6,0,12,5.4,12,12v4
		C-11.3-18.1-16.7-12.7-23.3-12.7z"/>
	<path class="st3" d="M-23.3,21.1h-4c-6.6,0-12-5.4-12-12v-4c0-6.6,5.4-12,12-12h4c6.6,0,12,5.4,12,12v4
		C-11.3,15.7-16.7,21.1-23.3,21.1z"/>
	<path class="st4" d="M-23.3,54.9h-4c-6.6,0-12-5.4-12-12v-4c0-6.6,5.4-12,12-12h4c6.6,0,12,5.4,12,12v4
		C-11.3,49.5-16.7,54.9-23.3,54.9z"/>
	<path class="st5" d="M-23.3,88.7h-4c-6.6,0-12-5.4-12-12v-4c0-6.6,5.4-12,12-12h4c6.6,0,12,5.4,12,12v4
		C-11.3,83.3-16.7,88.7-23.3,88.7z"/>
	<path class="st6" d="M-23.3,122.4h-4c-6.6,0-12-5.4-12-12v-4c0-6.6,5.4-12,12-12h4c6.6,0,12,5.4,12,12v4
		C-11.3,117-16.7,122.4-23.3,122.4z"/>
	<path class="st7" d="M-23.3,156.2h-4c-6.6,0-12-5.4-12-12v-4c0-6.6,5.4-12,12-12h4c6.6,0,12,5.4,12,12v4
		C-11.3,150.8-16.7,156.2-23.3,156.2z"/>
	<path class="st8" d="M-23.3,190h-4c-6.6,0-12-5.4-12-12v-4c0-6.6,5.4-12,12-12h4c6.6,0,12,5.4,12,12v4
		C-11.3,184.6-16.7,190-23.3,190z"/>
	<path class="st9" d="M-23.3,223.8h-4c-6.6,0-12-5.4-12-12v-4c0-6.6,5.4-12,12-12h4c6.6,0,12,5.4,12,12v4
		C-11.3,218.4-16.7,223.8-23.3,223.8z"/>
</g>
<g id="Content_1_" class="st10">
	<polygon class="st11" points="199.3,111.1 203.4,124.3 183.1,126.2 181.3,112 	"/>
	<rect y="179.2" class="st12" width="300" height="35.6"/>
	<path class="st13" d="M164.4,91.8l3.6,9.2l-0.1,0.9c-0.5,4.3,1.7,8.5,5.5,10.6l0,0c1.3,0.7,2.7,1,4.1,1h21.3c5,0,9.1-4.1,9.1-9.1
		V92.9v-8.7l-12.2-20.5h-7.5c-13.6,0-24.6,11-24.6,24.6l0,0C163.8,89.5,164,90.7,164.4,91.8z"/>
	<path class="st14" d="M173,89.5l2.1,7c0.3,0.9,0.7,1.7,1.3,2.3l0.1,0.2c0.6,0.6,0.3-2.2-0.2-3.1L173,89.5z"/>
	<path class="st15" d="M44.4,142c4.4-3.5,9.8-5.9,14-9.6c-2.1,3-4.2,6-5.6,9.2c-3,7-2.8,15.3-7.7,21.4c-2.7,3.3-6.6,5.7-8.9,9.2
		c-0.4,0.7-0.8,1.4-1,2.2c-0.1,0.4-0.1,0.8-0.1,1.2c0,0.3,0,0.5-0.4,0.2c-0.4-0.4-0.5-1.4-0.7-1.9c-0.2-0.6-0.4-1.3-0.5-1.9
		c-0.6-2.6-0.8-5.3-0.7-8c0.2-2.7,0.7-5.3,1.6-7.9c0.9-2.6,2.1-5,3.6-7.3s3.4-4.4,5.6-6.2C43.8,142.5,44.1,142.3,44.4,142z"/>
	<path class="st16" d="M33.7,167.1c-0.1-0.3-0.1-0.6-0.2-0.9c-0.7-3-1.8-5.9-3.2-8.6c-0.8-1.6-1.7-3.1-2.7-4.5
		c-4.7-6.8-11.7-12.1-19.8-14.5c6.1,6.2,9.2,14.5,14.8,21.1c1.7,2,3.5,3.8,5.4,5.6c1.8,1.8,3.6,3.7,5,5.9c0.8,1.2,1.4,2.4,1.9,3.7
		c-0.3-1.3-0.3-2.8-0.4-4.1c-0.1-1-0.5-2.1-0.4-3.2c0-0.4,0.1-0.8,0.2-1.2c0.2-1.3,0-2.7,0.1-4c0.2-2.8,0.8-5.6,1.7-8.3
		c1.2-3.5,2.7-6.9,4.5-10.2c3.8-7.2,8.4-14,10.8-21.8c-8.3,3.1-13.7,11.1-15.7,19.5c-2,8.3-1.1,17-0.2,25.5"/>
	<path class="st17" d="M32.8,143.8c-3.1-11.8-9.1-22.2-16.9-29.5c-2,15.6,2.8,31.4,9.7,44.4c1.5,2.9,3.2,5.7,4.7,8.7
		c0.7,1.5,1.4,3,2,4.5c0.3,0.8,0.6,1.6,0.8,2.3c0.2,0.6,0.3,1.8,0.7,2.3c0.6,0.7,0.6-0.8,0.6-1.3c0.1-0.9,0.3-1.8,0.4-2.7
		c0.2-1.8,0.4-3.7,0.4-5.6c0.2-3.7,0.1-7.4-0.3-11.1C34.5,151.8,33.8,147.7,32.8,143.8z"/>
	<path class="st14" d="M191.6,89.5l2.1,7c0.3,0.9,0.7,1.7,1.3,2.3l0.1,0.2c0.6,0.6,0.3-2.2-0.2-3.1L191.6,89.5z"/>
	<path class="st18" d="M217.8,68.7v14.9c-1.4,1.5-3,3.1-4.9,4.7c-1.5,1.3-3.3,2.5-5.2,3.4l0.3-7.5l-1.7-1l-6.9-4.1
		c-2.1-1.2-4-2.7-5.8-4.4l-7.3-7l-0.5-0.2l-1.7,0.1l-4.3,1.2c-2,0.5-3.9,1.4-5.7,2.6c-1.4,1-2.9,2.1-3.2,2.3
		c-0.3,0.2-1.1,1.5-1.9,2.7c-1,1.6-1.7,3.4-1.9,5.3l-0.2,1.8l-0.4,2.9l-0.5,4.1c-1-0.7-1.8-1.4-2.4-2.2c-1.8-2.2-3.1-4.1-4.1-5.8
		l0,0c-0.1-0.1-0.1-0.2-0.2-0.3c-0.2-0.3-0.3-0.6-0.5-0.8c-0.2-0.3-0.3-0.5-0.4-0.8l8.5-17c2.3-4.7,7.2-7.7,12.4-7.7h25.9
		c1.8,0,10.7-3.7,4.7,2l6.1,6.4C217.1,65.5,217.8,67,217.8,68.7z"/>
	<path class="st18" d="M166.1,90.5l-0.5,4.3c-3.7,0.6-7.1-2.1-7.4-5.8l-0.4-4.7c-0.1-1.2,0.1-2.4,0.6-3.5l0.1-0.2
		c1.1,2,2.8,4.6,5.3,7.7C164.4,89.1,165.2,89.8,166.1,90.5z"/>
	<path class="st18" d="M217.8,83.6V94c0,1.6-0.6,3.1-1.6,4.3l-9.2,10.3l0.7-16.9c1.9-1,3.6-2.1,5.2-3.4
		C214.7,86.7,216.3,85.1,217.8,83.6z"/>
	<path class="st19" d="M181.9,103.9"/>
	<path class="st19" d="M183.1,93.6"/>
	<path class="st19" d="M147.7,165.1"/>
	<path class="st11" d="M235.6,181.3l-18.4,0.4l-37.4,0.8l-25.2-1.1h-12.4c0,0,3.6-27,7.3-31.5s10.4-23.1,10.4-23.1l55-6.2
		c0,0,10.7,10.1,13.9,25.9c1.7,8.3,3.4,17.4,4.8,24.3c0,0.1,0,0.2,0,0.3c0,0.2,0.1,0.4,0.1,0.6l0,0
		C234.8,177.4,235.6,181.3,235.6,181.3z"/>
	<path class="st18" d="M46.1,191.9H24c-1.6,0-2.9-1.3-2.9-2.9v-17.7c0-1.6,1.3-2.9,2.9-2.9h22.1c1.6,0,2.9,1.3,2.9,2.9V189
		C48.9,190.7,47.7,191.9,46.1,191.9z"/>
	<path class="st18" d="M47.8,170.3h-25c-1.9,0-3.5-1.6-3.5-3.5l0,0c0-1.9,1.6-3.5,3.5-3.5h24.9c1.9,0,3.5,1.6,3.5,3.5l0,0
		C51.3,168.7,49.7,170.3,47.8,170.3z"/>
	<path class="st19" d="M154.6,181.2"/>
	<path class="st20" d="M168.8,189.8H60.1c-1,0-1.9,0.8-1.9,1.9v2.4c0,1,0.8,1.9,1.9,1.9h108.8c1,0,1.9-0.8,1.9-1.9v-2.4
		C170.7,190.6,169.8,189.8,168.8,189.8z"/>
	<polygon class="st21" points="140.7,185.1 60.2,185.1 40.3,146 124.8,146 	"/>
	<line class="st22" x1="22.8" y1="170.3" x2="38.1" y2="170.3"/>
	<polygon class="st13" points="176.3,165.5 181.9,182.3 154.6,182.4 156.3,172.6 	"/>
	<path class="st19" d="M145.9,173.1"/>
	<path class="st19" d="M163.3,136.2"/>
	<path class="st23" d="M217.8,79.8v3.8c-1.4,1.5-3,3.1-4.9,4.7c-1.5,1.3-3.3,2.5-5.2,3.4l0.3-7.5l-1.7-1
		C210.5,82.2,214.5,81.1,217.8,79.8z"/>
	<path class="st14" d="M217.8,83.6V94c0,1.6-0.6,3.1-1.6,4.3l-9.2,10.3l0.7-16.9c1.9-1,3.6-2.1,5.2-3.4
		C214.7,86.7,216.3,85.1,217.8,83.6z"/>
	<path class="st13" d="M206.9,94.8c0,0,2.3-8.6,5.9-6.5s5.6,5.1,3.4,8s-7.7,8-8.6,5S206.9,94.8,206.9,94.8z"/>
	<path class="st13" d="M162.5,125.9v-8.3l18.4-9c0,0,6-0.7,8.6,3.3s7.5,6.6,7.5,6.6s-0.8,1.4-1.4,2c-0.7,0.6-12.4,0-12.4,0
		s4.7-0.4,4.1,3.1s-3.4,7.5-5.8,8.6c-2.4,1.1-4.5,5.1-4.5,5.1l-13.1-1L162.5,125.9z"/>
	<path class="st24" d="M169.7,114.4l8.1-4.4c2.9-1.8,6.5-1.6,9.1,0.6c3.2,2.7,7.2,6.3,10.1,7.9"/>
	<polyline class="st24" points="160.9,179.3 163.3,181.2 181.9,182.3 	"/>
	<path class="st20" d="M50.2,165.3c0,0,32.5,13.4,54,5.8c21.6-7.5,22.5-17,22.4-19.1s14.2,33,14.2,33H60.2L50.2,165.3z"/>
	<path class="st24" d="M212.7,92.7l-2.5,3.4c0,0,1.7-0.7,2.5,0s0.8,0.7,0.8,0.7"/>
	<path class="st14" d="M188.5,85.4l-0.2,1.5l1.7,0.2c0,0,7.5-2.7,9.3-1.1s-3.3-4.4-7-2.5"/>
	<path class="st14" d="M177.7,85.6l0.2,1.5l-1.7,0.3c0,0-7.6-2.5-9.3-0.8s3.1-4.5,7-2.7"/>
	<path class="st24" d="M183.5,96.3c0,0-0.1,2.6-0.5,5.3s-0.6,3.8-0.6,3.8"/>
	<path class="st25" d="M235.6,181.3l-18.4,0.4c0,0,18-2.4,16.6-10C234.8,177.4,235.6,181.3,235.6,181.3z"/>
	<path class="st26" d="M178.4,165.1c0,0,29.4-5.1,31.7-8.2c3-4-2.2-14.1-2.2-14.1"/>
	<path class="st26" d="M176.8,137.3c0,0,1.1,21.3-0.6,28.3"/>
	<path class="st23" d="M165.7,83.7c0.7,0,1.2,0.7,1.1,1.4l-0.2,1.5l-0.5,4.1l-0.4,3.3c-0.1,0.6-0.6,1.1-1.2,1.1
		c-3.2-0.1-6-2.5-6.3-5.9l-0.4-4.7c-0.1-0.8,0-1.5,0.2-2.3c0,0.1,0-0.5,0.8-2l0.7,1.9c0.1,0.4,0.5,0.7,0.9,0.8
		C162.2,83.4,164.3,83.6,165.7,83.7z"/>
	<polyline class="st20" points="141.3,187.7 169.8,190.4 142.3,190.3 	"/>
	<path class="st21" d="M144.2,190.2h-86V185h83.6c1.3,0,2.4,1.1,2.4,2.4L144.2,190.2L144.2,190.2z"/>
	<path class="st27" d="M154.8,181.2c0,0,0.3,0.8,2.1,1.3s6.2-1.4,6.2-1.4"/>
	<circle class="st28" cx="135.7" cy="99.8" r="2.3"/>
	<circle class="st28" cx="129.3" cy="93.7" r="3.4"/>
	<path class="st28" d="M114.2,93.3H89.7c-6.6,0-12-5.4-12-12V72c0-6.6,5.4-12,12-12h24.5c6.6,0,12,5.4,12,12v9.2
		C126.2,87.9,120.8,93.3,114.2,93.3z"/>
	<circle class="st28" cx="182.5" cy="47.2" r="2.3"/>
	<circle class="st28" cx="176.1" cy="41.2" r="3.4"/>
	<path class="st28" d="M172.7,34.9h-24.5c-6.6,0-12-5.4-12-12v-9.2c0-6.6,5.4-12,12-12h24.5c6.6,0,12,5.4,12,12v9.2
		C184.7,29.5,179.3,34.9,172.7,34.9z"/>
	<circle class="st28" cx="225.8" cy="76.2" r="2.3"/>
	<circle class="st28" cx="232.3" cy="70.1" r="3.4"/>
	<path class="st28" d="M248.3,69.6h22.6c7.1,0,13-5.8,13-13v-7.3c0-7.1-5.8-13-13-13h-22.6c-7.1,0-13,5.8-13,13v7.3
		C235.3,63.8,241.2,69.6,248.3,69.6z"/>
	<path class="st29" d="M105,83.3H93.5c-2.1,0-3.8-1.7-3.8-3.8v-5.7c0-2.1,1.7-3.8,3.8-3.8H105c2.1,0,3.8,1.7,3.8,3.8v5.7
		C108.8,81.6,107.1,83.3,105,83.3z"/>
	<polygon class="st29" points="114.2,71.4 114.2,81.9 108.9,78.8 108.9,74.5 	"/>
	<path class="st29" d="M270.3,45.8l1.1,1c0.4,0.4,0.4,1.1,0.1,1.5l-9.2,10.2c-0.4,0.4-1.1,0.4-1.5,0.1l-1.1-1
		c-0.4-0.4-0.4-1.1-0.1-1.5l9.2-10.2C269.2,45.5,269.9,45.5,270.3,45.8z"/>
	<path class="st19" d="M259.8,59.9"/>
	<path class="st29" d="M257.2,61.2l4-2.1c0.1,0,0.1-0.1,0-0.2l-2.1-1.9c-0.1-0.1-0.2,0-0.2,0L257.2,61.2L257.2,61.2z"/>
	<path class="st29" d="M244.8,47.3c1.2-0.9,2.7-1.3,4.2-1.6c0.5-0.1,1-0.2,1.4-0.1s1,0.3,1.2,0.7c0.4,0.7,0.2,1.6-0.3,2.2
		c-1.1,1.6-3.1,2.3-4.6,3.6c-0.5,0.4-1,0.9-1.2,1.5c-0.2,0.5-0.2,1.1-0.2,1.6s0,1,0.4,1.3c0.2,0.2,0.5,0.2,0.8,0.2
		c0.7,0.1,1.3,0,2,0c0.7-0.1,1.3-0.2,2-0.2s1.4,0.1,1.9,0.5s0.9,1.1,0.7,1.7c-0.2,0.9-1.2,1.3-1.6,2c-0.2,0.4-0.3,0.8-0.3,1.3
		c0,0.3,0.1,0.6,0.3,0.8c0.3,0.4,0.9,0.6,1.5,0.5c0.5-0.1,1-0.5,1.3-0.9c0.2-0.2,0.3-0.5,0.6-0.6c0.5-0.1,0.9,0.4,1.1,0.9
		c0.5,0.9,0.3-0.4,0.3-0.6"/>
	<rect x="148.1" y="10.4" class="st29" width="24.6" height="15.1"/>
	<path class="st29" d="M157.7,18.3L157.7,18.3l-9.1-7.3c-0.1-0.1,0-0.2,0.1-0.2h23.9c0.1,0,0.2,0.2,0.1,0.2l-9.1,7.3l0,0"/>
	<path class="st29" d="M172.5,25.5h-23.9c-0.1,0-0.2-0.1-0.1-0.2l9.1-7.1l3,2.4l3-2.3l9.1,7C172.7,25.4,172.7,25.5,172.5,25.5z"/>
</g>
</svg>
